<?xml version="1.0" encoding="utf-8"?>
<!-- Generator: Adobe Illustrator 18.1.1, SVG Export Plug-In . SVG Version: 6.00 Build 0)  -->
<svg version="1.1" id="Layer_1" xmlns="http://www.w3.org/2000/svg" xmlns:xlink="http://www.w3.org/1999/xlink" x="0px" y="0px"
	 viewBox="172.3 696.1 612 133.4" enable-background="new 172.3 696.1 612 133.4" xml:space="preserve">
<g id="logo_here">
	<g>
		<g>
			<g>
				<g>
					<path fill="#FFFFFF" d="M377.4,744.1c-0.2-1.1-0.5-3.9-4.8-3.9c-3.4,0-4.3,2.1-4.3,3.4c0,2.3,3.9,3.9,7.8,5
						c8.7,2.5,18.1,5,18.1,16.2c0,11.4-9.6,18.1-21.1,18.1c-7.8,0-19.7-3.4-21.1-17.2h15.3c0.7,4.8,5.3,4.8,6,4.8
						c2.5,0,5.5-1.6,5.5-4.1c0-3.4-3.9-4.1-13.7-7.8c-6.6-2.1-12.4-6.4-12.4-13.5c0-10.8,9.4-17.4,20.1-17.4
						c6.9,0,18.5,2.5,19.9,16.2L377.4,744.1L377.4,744.1z"/>
					<path fill="#FFFFFF" d="M452.7,781.4h-15.6v-5.5c-2.7,5-9.4,7.3-15.3,7.3c-16.5,0-26.1-13-26.1-27.7
						c0-16.9,12.4-27.7,26.1-27.7c8.5,0,13.3,4.1,15.3,7.3v-5.5h15.3v51.7H452.7z M411,755.8c0,4.8,3.4,13,13,13
						c5.5,0,8.9-2.5,10.8-5.7c1.1-2.1,1.8-4.3,2.1-6.6c0.2-2.3-0.5-4.8-1.1-6.9c-1.8-3.4-5.3-7.1-11.7-7.1
						C415.1,742.3,411,749.9,411,755.8L411,755.8z"/>
					<path fill="#FFFFFF" d="M471.9,778.9l-19.2-49.2h16.5l10.5,30.2l9.8-30.2H506l-25.6,68.9h-16.5L471.9,778.9z"/>
					<path fill="#FFFFFF" d="M508.1,712.3h15.3v68.9h-15.3V712.3z"/>
					<path fill="#FFFFFF" d="M528.7,755.3c0-12.6,9.2-27.5,27.9-27.5c19,0,27.9,14.9,27.9,27.5s-9.2,27.5-27.9,27.5
						C537.6,783,528.7,768.2,528.7,755.3L528.7,755.3z M544,755.6c0,7.6,5.7,13,12.4,13c6.6,0,12.4-5.5,12.4-13
						c0-7.6-5.7-13-12.4-13C549.7,742.3,544,747.8,544,755.6L544,755.6z"/>
					<path fill="#FFFFFF" d="M589.3,729.7h14.4v5.7c1.6-2.7,4.1-7.6,13-7.6v15.6h-0.5c-7.8,0-11.7,3-11.7,10.1v27.9h-15.3
						L589.3,729.7L589.3,729.7z"/>
					<path fill="#FFFFFF" d="M639,755.3c0-12.6,9.2-27.5,27.9-27.5c19,0,27.9,14.9,27.9,27.5s-9.2,27.5-27.9,27.5
						C648.1,783,639,768.2,639,755.3L639,755.3z M654.5,755.6c0,7.6,5.7,13,12.4,13c6.6,0,12.4-5.5,12.4-13c0-7.6-5.7-13-12.4-13
						C660.3,742.3,654.5,747.8,654.5,755.6L654.5,755.6z"/>
					<path fill="#FFFFFF" d="M699.8,729.7h14.4v5.7c1.6-2.7,4.1-7.6,13-7.6v15.6h-0.5c-7.8,0-11.7,3-11.7,10.1v27.9h-15.3
						L699.8,729.7L699.8,729.7z"/>
					<path fill="#FFFFFF" d="M784.3,775.3c0,7.8-0.5,12.6-3.2,17.2c-4.1,6.4-13.5,12.4-26.3,12.4c-18.1,0-24.9-10.8-25.9-18.3h17.9
						c1.1,2.5,3.2,3.9,4.8,4.6c1.8,0.7,3.7,0.7,4.1,0.7c6,0,12.6-3.7,12.6-12.6v-3.2c-1.8,3-6.4,7.3-14.4,7.3
						c-14,0-26.1-10.8-26.1-27.2c0-17.6,12.6-27.9,26.1-27.9c5.7,0,11.4,2.1,14.4,6.4v-4.8h15.3v45.5L784.3,775.3L784.3,775.3z
						 M743.8,755.3c0,8.2,6,13.3,12.4,13.3c3.9,0,6.9-1.1,9.2-3.4c2.1-2.3,3.4-5.3,3.7-8.9c0-3.9-1.1-7.3-3.4-9.6
						c-2.1-2.5-5.3-4.1-9.4-4.1C749.5,742.3,743.8,747.6,743.8,755.3L743.8,755.3z"/>
					<circle fill="#FFFFFF" cx="625" cy="773.4" r="7.8"/>
				</g>
			</g>
		</g>
		<g>
			<path fill="#FFFFFF" d="M235.7,813.5c2.7-2.7,5-5.7,7.1-9.2c-16.9-7.1-32.7-8-37.5-8.2c-4.3-24.3-11.7-72.3-13.3-83.3
				c16.2,0.2,30.7,3.4,42.8,8.9c3-4.8,6.9-8.9,11.7-12.8c-0.2-0.2-0.5-0.2-0.7-0.5c-15.8-8.2-34.6-12.4-56.3-12.4h-17.2l2.5,16.9
				c0.9,6.4,9.4,61.6,14,87.4l2.3,12.4l12.6-0.5h0.5c1.4,0,13.3,0.2,27.2,4.8L235.7,813.5z"/>
			<g>
				<path fill="#499DCC" d="M290.6,797.2c-5.7,0.9-13,2.3-20.6,5c2.5-9.8,3-25.6-10.1-40.5c-14.9-17.4-3.4-29.5-1.1-31.6
					c7.8-6.4,25.4-16.7,56.5-17.2c-1.1,7.1-4.6,30.2-8,52.2l16,4.6c4.3-27,8.7-56.3,8.7-56.5l2.5-16.7h-17.2
					c-21.3,0-40.3,4.1-56.1,12.4l-0.5,0.2c-2.1,1.1-4.1,2.3-6.4,3.7c-13,8.5-19.5,19.5-19.5,33.6c0.5,9.2,4.1,18.1,11.4,26.5
					c4.8,5.7,7.6,12.4,7.3,19c-0.2,6.4-2.5,12.4-4.6,15.8c-2.3,4.3-5.3,8.2-8.9,11.7l-1.8,1.8l2.5,1.1c1.6,0.9,3,1.6,4.1,2.3
					l7.8,4.8l7.8-4.8c12.4-7.6,25.6-10.3,33.9-11.2L290.6,797.2z"/>
				<polygon fill="#FFFFFF" points="339.6,782.4 290.4,768.4 304.4,817.6 313.5,802.3 329.3,817.8 340.1,807.3 324.5,791.5 				"/>
			</g>
		</g>
	</g>
	
		<text transform="matrix(1.1531 0 0 1 497.4119 804.4326)" fill="#FFFFFF" font-family="'ArialMT'" font-size="19.2595" letter-spacing="17.3">ACADEMY</text>
</g>
</svg>
