<?xml version="1.0" encoding="utf-8"?>
<!-- Generator: Adobe Illustrator 18.1.1, SVG Export Plug-In . SVG Version: 6.00 Build 0)  -->
<svg version="1.1" id="Layer_1" xmlns="http://www.w3.org/2000/svg" xmlns:xlink="http://www.w3.org/1999/xlink" x="0px" y="0px"
	 viewBox="172.3 366.9 267.4 58.2" enable-background="new 172.3 366.9 267.4 58.2" xml:space="preserve">
<g id="logo_here">
	<g>
		<g>
			<g>
				<g>
					<path fill="#FFFFFF" stroke="#000000" stroke-width="0.25" d="M261.9,387.8c-0.1-0.5-0.2-1.7-2.1-1.7c-1.5,0-1.9,0.9-1.9,1.5
						c0,1,1.7,1.7,3.4,2.2c3.8,1.1,7.9,2.2,7.9,7.1c0,5-4.2,7.9-9.2,7.9c-3.4,0-8.6-1.5-9.2-7.5h6.7c0.3,2.1,2.3,2.1,2.6,2.1
						c1.1,0,2.4-0.7,2.4-1.8c0-1.5-1.7-1.8-6-3.4c-2.9-0.9-5.4-2.8-5.4-5.9c0-4.7,4.1-7.6,8.8-7.6c3,0,8.1,1.1,8.7,7.1L261.9,387.8
						L261.9,387.8z"/>
					<path fill="#FFFFFF" stroke="#000000" stroke-width="0.25" d="M294.8,404.1H288v-2.4c-1.2,2.2-4.1,3.2-6.7,3.2
						c-7.2,0-11.4-5.7-11.4-12.1c0-7.4,5.4-12.1,11.4-12.1c3.7,0,5.8,1.8,6.7,3.2v-2.4h6.7V404.1z M276.6,392.9
						c0,2.1,1.5,5.7,5.7,5.7c2.4,0,3.9-1.1,4.7-2.5c0.5-0.9,0.8-1.9,0.9-2.9c0.1-1-0.2-2.1-0.5-3c-0.8-1.5-2.3-3.1-5.1-3.1
						C278.4,387,276.6,390.3,276.6,392.9L276.6,392.9z"/>
					<path fill="#FFFFFF" stroke="#000000" stroke-width="0.25" d="M303.2,403l-8.4-21.5h7.2l4.6,13.2l4.3-13.2h7.2l-11.2,30.1h-7.2
						L303.2,403z"/>
					<path fill="#FFFFFF" stroke="#000000" stroke-width="0.25" d="M319,373.9h6.7V404H319V373.9z"/>
					<path fill="#FFFFFF" stroke="#000000" stroke-width="0.25" d="M328,392.7c0-5.5,4-12,12.2-12c8.3,0,12.2,6.5,12.2,12
						c0,5.5-4,12-12.2,12C331.9,404.8,328,398.3,328,392.7L328,392.7z M334.7,392.8c0,3.3,2.5,5.7,5.4,5.7c2.9,0,5.4-2.4,5.4-5.7
						c0-3.3-2.5-5.7-5.4-5.7C337.2,387,334.7,389.4,334.7,392.8L334.7,392.8z"/>
					<path fill="#FFFFFF" stroke="#000000" stroke-width="0.25" d="M354.5,381.5h6.3v2.5c0.7-1.2,1.8-3.3,5.7-3.3v6.8h-0.2
						c-3.4,0-5.1,1.3-5.1,4.4v12.2h-6.7V381.5z"/>
					<path fill="#FFFFFF" stroke="#000000" stroke-width="0.25" d="M376.2,392.7c0-5.5,4-12,12.2-12c8.3,0,12.2,6.5,12.2,12
						c0,5.5-4,12-12.2,12C380.2,404.8,376.2,398.3,376.2,392.7L376.2,392.7z M383,392.8c0,3.3,2.5,5.7,5.4,5.7
						c2.9,0,5.4-2.4,5.4-5.7c0-3.3-2.5-5.7-5.4-5.7C385.5,387,383,389.4,383,392.8L383,392.8z"/>
					<path fill="#FFFFFF" stroke="#000000" stroke-width="0.25" d="M402.8,381.5h6.3v2.5c0.7-1.2,1.8-3.3,5.7-3.3v6.8h-0.2
						c-3.4,0-5.1,1.3-5.1,4.4v12.2h-6.7V381.5z"/>
					<path fill="#FFFFFF" stroke="#000000" stroke-width="0.25" d="M439.7,401.4c0,3.4-0.2,5.5-1.4,7.5c-1.8,2.8-5.9,5.4-11.5,5.4
						c-7.9,0-10.9-4.7-11.3-8h7.8c0.5,1.1,1.4,1.7,2.1,2c0.8,0.3,1.6,0.3,1.8,0.3c2.6,0,5.5-1.6,5.5-5.5v-1.4
						c-0.8,1.3-2.8,3.2-6.3,3.2c-6.1,0-11.4-4.7-11.4-11.9c0-7.7,5.5-12.2,11.4-12.2c2.5,0,5,0.9,6.3,2.8v-2.1h6.7v19.9H439.7z
						 M422,392.7c0,3.6,2.6,5.8,5.4,5.8c1.7,0,3-0.5,4-1.5c0.9-1,1.5-2.3,1.6-3.9c0-1.7-0.5-3.2-1.5-4.2c-0.9-1.1-2.3-1.8-4.1-1.8
						C424.5,387,422,389.3,422,392.7L422,392.7z"/>
					<circle fill="#FFFFFF" stroke="#000000" stroke-width="0.25" cx="370.1" cy="400.6" r="3.4"/>
				</g>
			</g>
		</g>
		<g>
			<path fill="#FFFFFF" stroke="#000000" stroke-width="0.25" d="M200,418.1c1.2-1.2,2.2-2.5,3.1-4c-7.4-3.1-14.3-3.5-16.4-3.6
				c-1.9-10.6-5.1-31.6-5.8-36.4c7.1,0.1,13.4,1.5,18.7,3.9c1.3-2.1,3-3.9,5.1-5.6c-0.1-0.1-0.2-0.1-0.3-0.2
				c-6.9-3.6-15.1-5.4-24.6-5.4h-7.5l1.1,7.4c0.4,2.8,4.1,26.9,6.1,38.2l1,5.4l5.5-0.2h0.2c0.6,0,5.8,0.1,11.9,2.1L200,418.1z"/>
			<g>
				<path fill="#499DCC" stroke="#000000" stroke-width="0.25" d="M224,411c-2.5,0.4-5.7,1-9,2.2c1.1-4.3,1.3-11.2-4.4-17.7
					c-6.5-7.6-1.5-12.9-0.5-13.8c3.4-2.8,11.1-7.3,24.7-7.5c-0.5,3.1-2,13.2-3.5,22.8l7,2c1.9-11.8,3.8-24.6,3.8-24.7l1.1-7.3h-7.5
					c-9.3,0-17.6,1.8-24.5,5.4l-0.2,0.1c-0.9,0.5-1.8,1-2.8,1.6c-5.7,3.7-8.5,8.5-8.5,14.7c0.2,4,1.8,7.9,5,11.6
					c2.1,2.5,3.3,5.4,3.2,8.3c-0.1,2.8-1.1,5.4-2,6.9c-1,1.9-2.3,3.6-3.9,5.1l-0.8,0.8l1.1,0.5c0.7,0.4,1.3,0.7,1.8,1l3.4,2.1
					l3.4-2.1c5.4-3.3,11.2-4.5,14.8-4.9L224,411z"/>
				<polygon fill="#FFFFFF" stroke="#000000" stroke-width="0.25" points="245.4,404.5 223.9,398.4 230,419.9 234,413.2 240.9,420 
					245.6,415.4 238.8,408.5 				"/>
			</g>
		</g>
	</g>
	
		<text transform="matrix(1.1531 0 0 1 314.3506 414.1464)" fill="#FFFFFF" stroke="#000000" stroke-width="0.25" font-family="'SourceSansPro-Regular'" font-size="8.415" letter-spacing="7.8">ACADEMY</text>
</g>
</svg>
