<svg xmlns="http://www.w3.org/2000/svg" viewBox="0 0 597.9609 598"><defs><style>.cls-1{fill:#173140;}.cls-2{fill:#183140;}.cls-3{fill:#183241;}.cls-4{fill:#070707;}.cls-5{fill:#469dcc;}</style></defs><g id="saylor.org"><path class="cls-1" d="M577.2471,501.6343v-5.94h21.4134v66.1745a50.0606,50.0606,0,0,1-2.0723,15.6111c-2.3485,6.9076-7.322,11.881-13.677,15.3348-8.8417,5.1116-18.5123,6.6312-28.4591,6.0787-7.1839-.4145-13.9533-2.21-20.032-6.355a28.3209,28.3209,0,0,1-11.881-17.96v-.8288h23.4858c.4144,0,1.2434.1381,1.3815.5526,2.763,4.9734,7.322,6.6313,12.848,6.4931,7.46-.1381,13.6771-4.2826,15.8875-10.9139a27.1316,27.1316,0,0,0,.967-9.947,74.5119,74.5119,0,0,1-5.94,5.388c-4.6971,3.3156-10.2232,4.2826-15.7493,3.8682-12.9862-.8289-22.7949-6.6313-29.4262-18.0978-4.4208-7.7364-5.526-16.3018-4.559-25.0054.8289-8.0127,3.5919-15.6111,9.2562-21.5515,10.085-10.5,21.9661-13.9533,36.0575-10.0851A24.2693,24.2693,0,0,1,577.2471,501.6343ZM542.571,531.1987a22.4485,22.4485,0,0,0,.1381,2.4867,24.5861,24.5861,0,0,0,1.3815,5.25c4.8353,12.0192,21.4135,14.3678,29.2881,4.1446,3.4538-4.559,4.2827-9.947,3.4538-15.473a16.837,16.837,0,0,0-20.3082-14.0915C548.0971,515.3113,542.571,522.357,542.571,531.1987Z" transform="translate(-1 -1)"/><path class="cls-1" d="M118.8607,503.0159V495.832H140.136v71.4242H118.8607v-7.1838a41.8655,41.8655,0,0,1-3.1775,3.5919,24.3758,24.3758,0,0,1-14.23,5.94c-10.6377.9671-20.17-1.52-28.0447-8.8417A36.2434,36.2434,0,0,1,62.3567,539.35c-1.52-9.2562-.5526-18.3742,3.73-26.8014,7.46-14.92,25.2817-22.5187,40.7547-17.6834a22.33,22.33,0,0,1,11.19,7.5983C118.3081,502.3251,118.5844,502.6013,118.8607,503.0159Zm-17.8216,46.5569c12.0192.2763,17.8216-9.8087,17.8216-18.236,0-10.5-7.46-18.0978-17.8216-18.0978-11.6047-.1381-17.8215,9.2562-17.8215,18.3741C83.2176,539.4878,89.02,549.8491,101.0391,549.5728Z" transform="translate(-1 -1)"/><path class="cls-2" d="M285.3331,493.3453a35.2491,35.2491,0,0,1,25.2817,10.2232,37.3019,37.3019,0,0,1,11.3284,21.8279c1.796,12.9863-1.6578,24.1765-10.9139,33.709-6.0787,6.2168-13.9533,9.3942-22.6568,10.3613-7.3221.6908-14.6441,0-21.4135-3.1775-11.4666-5.25-18.0979-14.5058-20.7227-26.6632-3.4538-16.1637,3.8682-33.2944,18.0978-41.169C270.4128,494.7268,276.9059,493.3453,285.3331,493.3453Zm15.7493,38.13q-.2073-1.8651-.4145-3.73c-2.0723-11.881-15.3348-17.96-25.42-11.881-6.355,3.8682-9.3943,11.3284-8.0128,19.2031A17.26,17.26,0,0,0,287.6817,549.02C295.4182,547.3624,301.0824,539.9022,301.0824,531.475Z" transform="translate(-1 -1)"/><path class="cls-2" d="M438.8193,493.3453a34.8477,34.8477,0,0,1,24.591,10.2232,36.3554,36.3554,0,0,1,11.19,21.8279c1.7959,12.8481-1.6578,24.1765-10.914,33.5708-6.2168,6.3549-14.0915,9.5324-22.795,10.3613-7.322.6908-14.5059,0-21.2753-3.1775-11.19-5.1116-17.6834-13.9532-20.7227-25.558-4.0064-16.1637,3.1775-33.5707,17.1308-41.86C422.103,495.003,428.8724,493.3453,438.8193,493.3453Zm14.92,38.13c-.1382-1.2434-.2764-2.6249-.4145-3.8682-2.0722-11.881-15.3348-17.8216-25.2817-11.7429-6.3549,3.8682-9.3942,11.3284-8.0127,19.2031A17.1038,17.1038,0,0,0,440.6153,549.02C448.2136,547.2243,453.6015,539.9022,453.74,531.475Z" transform="translate(-1 -1)"/><path class="cls-2" d="M214.3233,495.6938c-.9671,2.763-1.9341,5.25-2.9012,7.8746-10.914,28.7355-21.5516,57.4709-32.4656,86.2065-.4144.9671-.8289,1.3815-1.7959,1.3815H155.7471a9.5329,9.5329,0,0,0,.5526-1.3815c3.4538-8.2891,6.7694-16.5782,10.3614-24.8672a3.0508,3.0508,0,0,0,0-2.21c-8.4273-21.8279-16.9927-43.5177-25.42-65.3456a9.5284,9.5284,0,0,0-.5526-1.3815H162.24a1.5835,1.5835,0,0,1,1.796,1.3815c4.4208,12.848,8.8417,25.558,13.4007,38.2679.1381.4145.4144.9671.6907,1.6579,1.52-4.559,2.9012-8.8418,4.2827-13.2625,2.9012-8.8418,5.8024-17.8216,8.7036-26.6632.2763-1.1052.8289-1.3816,1.9341-1.3816,6.4931.1382,13.1244,0,19.7556,0A2.5074,2.5074,0,0,1,214.3233,495.6938Z" transform="translate(-1 -1)"/><path class="cls-2" d="M57.5214,515.7257H36.5224c-.967-4.8353-6.3549-6.9076-10.6376-4.2826-2.763,1.7959-2.9012,4.8352-.4145,6.7694,3.0393,2.21,6.6313,3.1775,10.2232,4.2827a103.8616,103.8616,0,0,1,11.0521,3.73c14.0915,5.6641,14.92,18.236,11.0521,27.7684-2.763,6.9075-8.1509,11.3284-15.1966,13.677-10.0851,3.3156-19.8938,2.763-29.2881-2.3486-7.1839-4.0064-10.914-10.5-12.0192-18.5123v-.8289H22.431c.5526,3.3157,2.3486,5.5261,5.6642,6.2168a9.6014,9.6014,0,0,0,6.4931-.6907,4.963,4.963,0,0,0,3.1775-4.2827,4.4391,4.4391,0,0,0-2.763-4.559c-3.1775-1.3815-6.355-2.763-9.8088-4.0064-3.73-1.3815-7.46-2.6249-11.19-4.2827-5.1115-2.3486-9.5324-5.6641-11.3284-11.4665-2.3485-8.0128-.2763-15.1967,5.3879-21.1372,6.6313-6.9075,15.1967-8.98,24.591-8.289a30.26,30.26,0,0,1,15.1966,5.1116C54.0677,502.6013,56.6925,508.68,57.5214,515.7257Z" transform="translate(-1 -1)"/><path class="cls-1" d="M216.9482,567.2562V471.9318h21.2753v95.3244Z" transform="translate(-1 -1)"/><path class="cls-2" d="M350.6787,567.2562H329.2653V495.832h20.0319v7.1839c4.0064-7.1839,10.3614-9.947,18.236-9.8088v21.5516c-1.9341.1381-3.73.1381-5.526.4145-7.322.967-11.19,5.25-11.19,12.848v37.5772A6.7237,6.7237,0,0,0,350.6787,567.2562Z" transform="translate(-1 -1)"/><path class="cls-1" d="M482.0607,495.6938h20.032v7.1838c3.8682-7.1838,10.3613-9.9469,18.236-9.9469v21.4135c-2.3486.2763-4.559.2763-6.7695.6908-6.3549,1.3815-9.8087,5.25-9.9469,11.8809-.1381,4.2827-.1381,8.4272-.1381,12.8481v27.0777H482.1988C482.0607,543.4942,482.0607,519.594,482.0607,495.6938Z" transform="translate(-1 -1)"/><path class="cls-3" d="M367.6713,556.2041a10.7958,10.7958,0,0,1,11.0522-10.914,11.053,11.053,0,0,1-.2764,22.1043A11.0613,11.0613,0,0,1,367.6713,556.2041Z" transform="translate(-1 -1)"/><path class="cls-2" d="M449.0425,598.34h-1.9341c-1.52-4.8353-3.5919-10.7758-5.1116-15.6111a5.4426,5.4426,0,0,0-.2763-.8289c-.2763,5.5261-.5526,11.0521-.9671,16.44h-2.4867c.4144-6.4931.9671-13.1244,1.3815-19.7556h3.3156c1.796,5.1116,3.592,10.4994,5.25,15.611,1.52-4.4208,3.3156-8.98,4.8353-13.677l.6907-1.9341h3.4538q.6216,9.9468,1.2434,19.8938h-2.6249c-.2763-5.1116-.2763-11.6047-.5526-16.7163" transform="translate(-1 -1)"/><path class="cls-4" d="M450.8385,593.2287" transform="translate(-1 -1)"/><path class="cls-2" d="M347.5012,598.6165V578.7227c2.7631,0,5.6643-.2763,8.2891,0,5.5261.8289,8.4273,4.9734,7.7365,10.6377-.6907,6.0787-4.0064,8.8417-10.7758,9.2561C351.0932,598.7547,349.2972,598.6165,347.5012,598.6165Zm2.6249-17.6833v15.6111c4.0064.8288,7.7365-.4145,9.3943-2.9012,1.7959-2.6249,1.9341-7.322.1381-9.9469C357.1718,580.3806,353.718,580.5187,350.1261,580.9332Z" transform="translate(-1 -1)"/><path class="cls-2" d="M214.047,578.5846h3.1774c1.796,5.25,4.4209,13.2625,6.2168,18.5123.1382.4144.2764.8289.4145,1.3815h-2.763l-2.0723-6.2168h-6.9076l-1.52,4.6972-.4144,1.52h-2.9012C209.6261,591.8472,211.8366,585.354,214.047,578.5846Zm4.4208,11.6047q-1.4505-4.3517-2.9012-8.7035c-.967,3.0394-1.9341,5.8024-2.763,8.7035Z" transform="translate(-1 -1)"/><path class="cls-2" d="M313.1015,598.4784l-2.0722-6.2168h-6.9076s-1.3815,4.4209-1.9341,6.2168h-2.763c2.21-6.6312,4.4208-13.4007,6.6312-19.8938h3.1775c1.7959,5.3879,4.4208,13.4007,6.355,18.7885a8.8375,8.8375,0,0,1,.2763.9671A18.51,18.51,0,0,1,313.1015,598.4784Zm-2.763-8.2891c-.9671-2.9011-1.9341-5.6641-2.9012-8.7035-.967,3.0394-1.9341,5.8024-2.763,8.7035Z" transform="translate(-1 -1)"/><path class="cls-2" d="M395.578,578.5846h10.6376v2.0723H398.341v6.0787h7.46v2.21h-7.46v7.0457h8.4272v2.21h-11.19Z" transform="translate(-1 -1)"/><path class="cls-2" d="M268.8931,579.2753c-.1382.6908-.4144,1.2434-.5526,1.9342-3.8682-1.2434-7.5983-1.3815-10.3614,2.3486-1.9341,2.6249-1.7959,7.46.1382,10.2232,1.9341,2.6249,5.3879,3.3157,10.3614,1.9342a10.1725,10.1725,0,0,0,.5526,1.9341c-4.2827,2.0723-10.3614.9671-12.9863-2.3486-2.9012-3.5919-2.763-10.085.2763-13.677C258.9462,578.4465,265.0249,577.2031,268.8931,579.2753Z" transform="translate(-1 -1)"/><path class="cls-2" d="M494.6325,598.34v-8.2891l-6.2168-11.3284h2.9012l2.763,5.3879c.6907,1.52,1.3815,2.6249,1.9341,4.0064h0c.5527-1.2433,1.2434-2.4867,1.9342-4.0064l2.763-5.3879h2.9012l-6.4932,11.3284V598.34Z" transform="translate(-1 -1)"/></g><g id="logo"><path class="cls-5" d="M239.5,448.4936c5.0808-5.0807,11.1385-10.0637,16.2192-15.8284,16.9032-18.76,29.5073-40.45,35.9558-65.0722,8.2073-32.1453,1.0748-61.8479-18.6618-87.8377-10.0637-13.3858-20.8114-26.0876-28.3348-40.45C233.54,217.2234,226.31,194.4578,228.46,169.152c1.7587-32.8292,13.5812-60.7732,36.249-83.8318C283.37,65.779,307.5038,51.3186,332.6143,39.1053c36.2489-17.0008,75.429-27.8462,115.6839-32.8292,19.3458-2.54,39.5709-3.6152,59.6007-4.2991,23.1563-.7816,46.8989-.7816,70.2506-.7816h3.2243c-13.288,88.6194-26.8691,175.7731-40.1571,263.904-6.8395-1.8564-12.6041-3.6151-18.3688-5.0807-11.8224-3.322-23.6448-6.9371-35.9558-10.0637-2.4426-.684-3.6151-1.8565-3.2243-5.0808q6.4486-37.9587,11.8224-75.9176c4.2991-27.8462,8.6959-55.5947,13.288-83.8317,1.0748-6.9371,1.7587-13.6789,3.2243-21.0068v-2.54c-6.8394,0-13.288-.6839-19.3458,0a367.4135,367.4135,0,0,0-70.7391,10.0638c-36.9329,8.6958-71.5208,22.7654-102.3959,44.847-16.9032,11.92-27.6508,28.53-30.8752,49.1462-1.7586,14.46,1.0748,28.53,7.5234,41.6227,5.7647,11.92,14.3628,22.7655,22.6678,32.8292,18.3688,22.7655,30.8751,48.853,35.2719,78.458,3.2243,19.5412,1.7587,39.7663-2.4426,59.3075a7.29,7.29,0,0,1-.684,3.3221,365.8734,365.8734,0,0,1,73.2795-17.6848c5.7647,19.5412,10.8454,38.6916,16.2192,58.2328-6.0577,1.1725-12.604,1.8564-18.6618,3.322-38.7893,6.9371-75.4291,19.5412-108.0629,41.6227a185.0032,185.0032,0,0,1-20.1274,11.92,3.44,3.44,0,0,1-3.6152,0C272.5251,468.7188,256.6967,458.9481,239.5,448.4936Z" transform="translate(-1 -1)"/><path class="cls-1" d="M116.9771,359.9719a378.1427,378.1427,0,0,1,100.54,17.0009c11.1385,3.6152,22.6678,8.305,35.2719,12.7018-5.0808,7.6211-9.38,14.4605-14.3628,20.3228-8.2073,9.38-16.9032,17.6848-25.8921,26.3807-.684.6839-2.4427.6839-3.6152.6839-29.5072-9.38-59.6006-15.8284-90.5734-16.3169-14.3628-.6839-28.3348.684-42.7953,1.1725H68.71C43.0136,282.198,22.4953,141.99,1,1H68.1241C124.5,1.684,179.802,9.6958,232.661,31.3866c10.8454,4.299,21.2022,9.38,31.95,14.46-8.2073,7.6211-15.7307,14.4605-22.6678,22.0815a244.3158,244.3158,0,0,0-19.3458,24.622c-23.2541-10.8454-48.56-18.4665-73.2795-23.4495a462.18,462.18,0,0,0-78.2626-8.305C85.32,161.0424,101.2464,260.898,116.9771,359.9719Z" transform="translate(-1 -1)"/><path class="cls-1" d="M597.4953,310.7281c-18.3687,11.2362-36.2489,22.0815-53.836,32.8292,18.3687,18.4664,36.9329,37.226,55.3016,55.5947-13.5812,12.7018-26.283,25.3059-39.5709,38.6916-18.3688-18.4665-36.249-36.4443-55.3016-55.5947-10.8454,18.4664-21.2023,36.1512-32.6338,54.2268-16.9032-59.3076-33.4155-117.54-50.2209-176.75C480.4435,276.4333,538.5786,293.8249,597.4953,310.7281Z" transform="translate(-1 -1)"/></g></svg>