<?xml version="1.0" encoding="utf-8"?>
<!-- Generator: Adobe Illustrator 18.1.1, SVG Export Plug-In . SVG Version: 6.00 Build 0)  -->
<svg version="1.1" id="Layer_1" xmlns="http://www.w3.org/2000/svg" xmlns:xlink="http://www.w3.org/1999/xlink" x="0px" y="0px"
	 viewBox="1.7 329.9 607.6 132.5" enable-background="new 1.7 329.9 607.6 132.5" xml:space="preserve">
<g>
	<path fill="#469DCC" d="M68.2,453.7c1.5-1.4,3.1-2.8,4.5-4.3c4.7-5.2,8.2-11.2,9.9-18c2.3-8.9,0.4-17.1-5.3-24.3
		c-2.8-3.6-5.7-7.1-7.8-11.1c-3.2-6-5-12.4-4.6-19.3c0.5-9,3.8-16.8,10.1-23.3c5.4-5.7,12.1-9.6,19.1-12.9c10.2-4.8,21-7.8,32.1-9.1
		c5.5-0.7,11-1.1,16.5-1.2c6.5-0.2,13.1-0.1,19.6-0.1c0.2,0,0.5,0,0.9,0c-3.8,24.4-7.5,48.6-11.3,73c-1.9-0.5-3.5-1-5.2-1.4
		c-3.3-0.9-6.7-1.9-10-2.8c-0.8-0.2-1-0.5-0.9-1.3c1.2-7,2.3-14,3.4-21c1.2-7.7,2.4-15.4,3.6-23.2c0.3-1.9,0.6-3.8,0.9-5.7
		c0-0.3,0-0.5,0-0.7c-1.9,0-3.7-0.1-5.5,0c-6.7,0.4-13.3,1.2-19.8,2.8c-10.2,2.4-19.8,6.2-28.5,12.3c-4.8,3.4-7.7,7.9-8.5,13.7
		c-0.6,4,0.3,7.8,2.1,11.5c1.6,3.4,3.9,6.3,6.3,9.1c5.1,6.3,8.5,13.5,9.7,21.6c0.8,5.5,0.6,11-0.6,16.4c-0.1,0.3-0.1,0.5-0.2,0.9
		c6.7-2.3,13.4-4,20.4-4.9c1.5,5.4,3.1,10.7,4.6,16.1c-1.8,0.3-3.5,0.5-5.2,0.8c-10.8,1.9-20.9,5.5-30.1,11.5
		c-1.8,1.2-3.7,2.3-5.5,3.4c-0.3,0.2-0.8,0.2-1,0C77.5,459.3,73,456.6,68.2,453.7z"/>
	<path fill="#183140" d="M34.1,429.2c9.7,0.3,19,1.9,28,4.6c3.2,1,6.3,2.2,9.8,3.4c-1.4,2-2.6,4-4.1,5.7c-2.3,2.5-4.7,4.9-7.1,7.3
		c-0.2,0.2-0.8,0.3-1.1,0.2c-8.2-2.7-16.6-4.3-25.2-4.6c-4-0.1-8,0.2-11.9,0.3c-0.6,0-1.2,0-2,0c-7.1-38.5-12.8-77.3-18.8-116.2
		c0.5,0,0.9,0,1.3,0c5.8,0,11.7-0.1,17.5,0c15.7,0.2,31.1,2.5,45.7,8.5c3,1.2,6,2.7,9,4c-2.2,2.1-4.4,4-6.3,6.1s-3.6,4.4-5.5,6.8
		c-6.5-3-13.4-5.1-20.5-6.5s-14.3-2.1-21.9-2.2C25.4,374.2,29.7,401.7,34.1,429.2z"/>
	<path fill="#173140" d="M593.9,367.4c0-1.4,0-2.8,0-4.3c5.1,0,10.2,0,15.4,0c0,0.4,0,0.8,0,1.1c0,15.5,0,31,0,46.5
		c0,3.8-0.3,7.5-1.5,11.2c-1.7,5-5.3,8.5-9.8,11c-6.4,3.7-13.3,4.8-20.5,4.4c-5.2-0.3-10-1.6-14.4-4.6c-4.5-3.2-7.4-7.4-8.5-12.9
		c0-0.2,0-0.3,0-0.6c0.4,0,0.8,0,1.2,0c5.2,0,10.5,0,15.7,0c0.3,0,0.9,0.1,1,0.4c2,3.6,5.3,4.8,9.2,4.7c5.4-0.1,9.8-3.1,11.4-7.8
		c0.8-2.4,0.8-4.8,0.7-7.1c-1.4,1.3-2.7,2.7-4.3,3.9c-3.4,2.4-7.3,3.1-11.3,2.8c-9.3-0.6-16.4-4.8-21.1-13c-3.2-5.6-4-11.7-3.3-18
		c0.6-5.8,2.6-11.2,6.7-15.5c7.2-7.5,15.8-10,25.9-7.2C589.4,363.3,591.8,365,593.9,367.4z M569,388.6c-0.1,0,0.1,1.1,0.1,1.8
		c0.4,1.8,0.3,2,1,3.8c3.5,8.6,15.4,10.3,21,3c2.5-3.3,3.1-7.1,2.5-11.1c-1.2-7.1-7.5-11.5-14.6-10.1C573,377.2,569,382.3,569,388.6
		z"/>
	<path fill="#173140" d="M264.5,368.4c0-1.9,0-3.5,0-5.2c5.2,0,10.2,0,15.3,0c0,17.1,0,34.2,0,51.3c-5.1,0-10.1,0-15.3,0
		c0-1.7,0-3.4,0-5.2c-0.8,1-1.5,1.8-2.3,2.6c-2.9,2.6-6.4,3.9-10.2,4.3c-7.6,0.7-14.5-1.1-20.2-6.4c-4.5-4.2-7-9.5-7.9-15.4
		c-1.1-6.7-0.4-13.2,2.7-19.3c5.4-10.7,18.2-16.2,29.3-12.7c3.2,1,6,2.8,8,5.5C264.1,367.9,264.3,368.1,264.5,368.4z M251.7,401.8
		c8.6,0.2,12.8-7,12.8-13.1c0-7.5-5.4-13-12.8-13c-8.3-0.1-12.8,6.7-12.8,13.2C238.9,394.6,243.1,402,251.7,401.8z"/>
	<path fill="#183140" d="M384.1,361.4c6.3,0,12.9,2.1,18.2,7.3c4.5,4.3,7.2,9.6,8.1,15.7c1.3,9.3-1.2,17.4-7.8,24.2
		c-4.4,4.5-10,6.8-16.3,7.4c-5.3,0.5-10.5,0-15.4-2.3c-8.2-3.8-13-10.4-14.9-19.2c-2.5-11.6,2.8-23.9,13-29.6
		C373.4,362.4,378.1,361.4,384.1,361.4z M395.4,388.8c-0.1-0.9-0.2-1.8-0.3-2.7c-1.5-8.5-11-12.9-18.3-8.5
		c-4.6,2.8-6.8,8.1-5.8,13.8c1.2,6.9,7.9,11.5,14.7,10C391.4,400.2,395.4,394.9,395.4,388.8z"/>
	<path fill="#183140" d="M494.4,361.4c5.8,0,12.4,2.1,17.7,7.3c4.5,4.3,7.2,9.6,8,15.7c1.3,9.2-1.2,17.4-7.8,24.1
		c-4.5,4.6-10.1,6.9-16.4,7.4c-5.3,0.5-10.4,0-15.3-2.3c-8-3.7-12.7-10-14.9-18.4c-2.9-11.6,2.3-24.1,12.3-30.1
		C482.4,362.6,487.3,361.4,494.4,361.4z M505.2,388.8c-0.1-0.9-0.2-1.9-0.3-2.8c-1.5-8.5-11-12.8-18.2-8.4
		c-4.6,2.8-6.8,8.1-5.8,13.8c1.2,7,8,11.6,14.8,10C501.2,400.1,505.1,394.9,505.2,388.8z"/>
	<path fill="#183140" d="M333.1,363.1c-0.7,2-1.4,3.8-2.1,5.7c-7.8,20.7-15.5,41.3-23.3,62c-0.3,0.7-0.6,1-1.3,1
		c-5.1,0-10.1,0-15.4,0c0.2-0.4,0.3-0.7,0.4-1c2.5-6,4.9-11.9,7.4-17.9c0.2-0.5,0.2-1.1,0-1.6c-6.1-15.7-12.2-31.3-18.3-47
		c-0.1-0.3-0.2-0.6-0.4-1c0.9,0,1.7,0,2.5,0c4.3,0,8.6,0,13,0c0.8,0,1.1,0.3,1.3,1c3.2,9.2,6.4,18.4,9.6,27.5
		c0.1,0.3,0.3,0.7,0.5,1.2c1.1-3.3,2.1-6.4,3.1-9.5c2.1-6.4,4.2-12.8,6.3-19.2c0.2-0.8,0.6-1,1.4-1c4.7,0.1,9.4,0,14.2,0
		C332.3,363.1,332.6,363.1,333.1,363.1z"/>
	<path fill="#183140" d="M220.4,377.5c-5.1,0-10.1,0-15.1,0c-0.7-3.5-4.6-5-7.6-3.1c-2,1.3-2.1,3.5-0.3,4.9c2.2,1.6,4.8,2.3,7.3,3.1
		c2.7,0.8,5.4,1.6,7.9,2.7c10.1,4.1,10.7,13.1,7.9,20c-2,5-5.9,8.1-10.9,9.8c-7.2,2.4-14.3,2-21-1.7c-5.2-2.9-7.8-7.5-8.6-13.3
		c0-0.2,0-0.4,0-0.6c5.1,0,10.1,0,15.2,0c0.4,2.4,1.7,4,4.1,4.5c1.6,0.4,3.2,0.2,4.7-0.5c1.3-0.6,2.2-1.6,2.3-3.1
		c0.1-1.6-0.7-2.7-2-3.3c-2.3-1-4.6-2-7-2.9c-2.7-1-5.4-1.9-8-3.1c-3.7-1.7-6.9-4.1-8.1-8.2c-1.7-5.8-0.2-10.9,3.9-15.2
		c4.8-5,10.9-6.5,17.7-6c3.9,0.3,7.6,1.4,10.9,3.7C217.9,368.1,219.8,372.4,220.4,377.5z"/>
	<path fill="#183240" d="M167.9,415.5c-5.1,3.1-10.1,6.1-15.1,9c5.2,5.2,10.3,10.3,15.3,15.3c-3.6,3.6-7.2,7.2-10.8,10.8
		c-5-5-10.1-10.1-15.3-15.3c-3,5-6,10-9.1,15.1c-4.7-16.4-9.3-32.5-14-48.9C135.3,406.2,151.5,410.8,167.9,415.5z"/>
	<path fill="#173140" d="M335,414.5c0-22.9,0-45.7,0-68.5c5.1,0,10.2,0,15.3,0c0,22.8,0,45.6,0,68.5
		C345.3,414.5,340.2,414.5,335,414.5z"/>
	<path fill="#183140" d="M431.1,414.5c-5.2,0-10.3,0-15.4,0c0-17.1,0-34.2,0-51.3c4.8,0,9.5,0,14.4,0c0,1.7,0,3.5,0,5.2
		c2.9-5.2,7.4-7.1,13.1-7c0,5.2,0,10.3,0,15.5c-1.4,0.1-2.7,0.1-4,0.3c-5.3,0.7-8,3.8-8,9.2c0,9,0,18,0,27
		C431.1,413.7,431.1,414.1,431.1,414.5z"/>
	<path fill="#173140" d="M525.5,363.1c4.8,0,9.6,0,14.4,0c0,1.7,0,3.5,0,5.2c2.8-5.2,7.4-7.1,13.1-7.1c0,5.2,0,10.3,0,15.4
		c-1.7,0.2-3.3,0.2-4.9,0.5c-4.6,1-7,3.8-7.1,8.5c-0.1,3.1-0.1,6.1-0.1,9.2c0,6.1,0,12.2,0,18.3c0,0.4,0,0.7,0,1.2
		c-5.1,0-10.2,0-15.3,0C525.5,397.4,525.5,380.3,525.5,363.1z"/>
	<path fill="#183241" d="M443.3,406.6c0-4.4,3.5-7.9,7.9-7.8c4.4,0,7.9,3.6,7.8,8c0,4.4-3.6,7.9-8,7.8
		C446.8,414.5,443.3,411,443.3,406.6z"/>
	<path fill="#183140" d="M501.8,436.9h-1.4c-1.1-3.5-2.6-7.7-3.7-11.2c0-0.1-0.1-0.3-0.2-0.6c-0.2,4-0.4,7.9-0.7,11.8
		c-0.6,0-1.1,0-1.8,0c0.3-4.7,0.7-9.4,1-14.2c0.8,0,1.5,0,2.4,0c1.3,3.7,2.6,7.5,3.8,11.2c1.1-3.2,2.4-6.5,3.5-9.8l0.5-1.4
		c0.2,0,2.1,0,2.5,0c0.3,4.8,0.6,9.5,0.9,14.3c-0.6,0-1.2,0-1.9,0c-0.2-3.7-0.2-8.3-0.4-12"/>
	<path fill="#070707" d="M503.1,433.2"/>
	<path fill="#183140" d="M428.8,437.1c0-4.9,0-9.5,0-14.3c2,0,4.1-0.2,6,0c4,0.6,6.1,3.6,5.6,7.6c-0.5,4.4-2.9,6.4-7.7,6.7
		C431.4,437.2,430.1,437.1,428.8,437.1z M430.7,424.3c0,3.8,0,7.5,0,11.2c2.9,0.6,5.6-0.3,6.8-2.1c1.3-1.9,1.4-5.3,0.1-7.1
		C435.8,423.9,433.3,424,430.7,424.3z"/>
	<path fill="#183140" d="M332.9,422.7h2.3c1.3,3.8,3.2,9.5,4.5,13.3c0.1,0.3,0.2,0.6,0.3,1c-0.7,0-1.3,0-2,0
		c-0.4-1.2-1.5-4.5-1.5-4.5l0,0h-5l0,0l-1.1,3.4l-0.3,1.1c-0.2,0-1.7,0-2.1,0C329.7,432.2,331.3,427.5,332.9,422.7z M336.1,431
		c-0.7-2.1-1.4-4.2-2.1-6.3c-0.7,2.2-1.4,4.2-2,6.3C333.4,431,334.7,431,336.1,431z"/>
	<path fill="#183140" d="M404.1,437c-0.4-1.2-1.5-4.5-1.5-4.5l0,0h-5l0,0c0,0-1,3.2-1.4,4.5c-0.6,0-1.2,0-2,0
		c1.6-4.8,3.2-9.6,4.8-14.3h2.3c1.3,3.9,3.2,9.6,4.6,13.5c0.1,0.2,0.1,0.4,0.2,0.7C405.4,437,404.8,437,404.1,437z M402.1,431
		c-0.7-2.1-1.4-4.1-2.1-6.3c-0.7,2.2-1.4,4.2-2,6.3C399.5,431,400.7,431,402.1,431z"/>
	<path fill="#183140" d="M463.4,422.7c2.6,0,5,0,7.6,0c0,0.5,0,1,0,1.5c-1.9,0-3.8,0-5.7,0c0,1.5,0,3,0,4.4c1.8,0,3.6,0,5.4,0
		c0,0.6,0,1,0,1.6c-1.8,0-3.6,0-5.4,0c0,1.7,0,3.3,0,5.1c2,0,4,0,6.1,0c0,0.6,0,1,0,1.6c-2.6,0-5.3,0-8,0
		C463.4,432.2,463.4,427.5,463.4,422.7z"/>
	<path fill="#183140" d="M372.3,423.2c-0.1,0.5-0.3,0.9-0.4,1.4c-2.8-0.9-5.5-1-7.4,1.7c-1.4,1.9-1.3,5.4,0.1,7.3s3.9,2.4,7.4,1.4
		c0.1,0.5,0.2,0.9,0.4,1.4c-3.1,1.5-7.4,0.7-9.3-1.7c-2.1-2.6-2-7.2,0.2-9.8C365.2,422.6,369.5,421.7,372.3,423.2z"/>
</g>
<g>
	<path fill="#183140" d="M534.5,436.9v-6l-4.5-8.1h2.1l2,3.9c0.5,1.1,1,1.9,1.4,2.9l0,0c0.4-0.9,0.9-1.8,1.4-2.9l2-3.9h2.1l-4.7,8.1
		v6H534.5L534.5,436.9z"/>
</g>
</svg>
